<svg width="22" height="22" viewBox="0 0 22 22" fill="none" xmlns="http://www.w3.org/2000/svg">
<g clip-path="url(#clip0_391_8647)">
<path d="M17.4167 0H4.58333C2.05608 0 0 2.05608 0 4.58333V17.4167C0 19.9439 2.05608 22 4.58333 22H14.2221C14.3715 22 14.5191 21.9881 14.6667 21.978V17.4167C14.6667 15.9005 15.9005 14.6667 17.4167 14.6667H21.978C21.9881 14.5191 22 14.3715 22 14.2221V4.58333C22 2.05608 19.9439 0 17.4167 0ZM14.6667 11.9167H11.9167V14.6667C11.9167 15.1736 11.506 15.5833 11 15.5833C10.494 15.5833 10.0833 15.1736 10.0833 14.6667V11.9167H7.33333C6.82733 11.9167 6.41667 11.5069 6.41667 11C6.41667 10.4931 6.82733 10.0833 7.33333 10.0833H10.0833V7.33333C10.0833 6.82642 10.494 6.41667 11 6.41667C11.506 6.41667 11.9167 6.82642 11.9167 7.33333V10.0833H14.6667C15.1727 10.0833 15.5833 10.4931 15.5833 11C15.5833 11.5069 15.1727 11.9167 14.6667 11.9167ZM17.4167 16.5H21.5783C21.2603 17.3369 20.7717 18.1078 20.1199 18.7596L18.7596 20.1208C18.1069 20.7726 17.3369 21.2612 16.5 21.5793V17.4176C16.5 16.9125 16.9107 16.5 17.4167 16.5Z" fill="white"/>
</g>
<defs>
<clipPath id="clip0_391_8647">
<rect width="22" height="22" fill="white"/>
</clipPath>
</defs>
</svg>
