<svg width="21" height="21" viewBox="0 0 21 21" fill="none" xmlns="http://www.w3.org/2000/svg">
<g clip-path="url(#clip0_391_8644)">
<path d="M7 3.5H3.5C2.57174 3.5 1.6815 3.86875 1.02513 4.52513C0.368749 5.1815 0 6.07174 0 7L0 10.5C0 10.9641 0.184374 11.4092 0.512563 11.7374C0.840752 12.0656 1.28587 12.25 1.75 12.25H6.92125C6.71364 13.472 6.08079 14.5812 5.13453 15.3818C4.18826 16.1824 2.98948 16.6227 1.75 16.625C1.51794 16.625 1.29538 16.7172 1.13128 16.8813C0.967187 17.0454 0.875 17.2679 0.875 17.5C0.875 17.7321 0.967187 17.9546 1.13128 18.1187C1.29538 18.2828 1.51794 18.375 1.75 18.375C3.60588 18.3729 5.38514 17.6347 6.69745 16.3224C8.00975 15.0101 8.74792 13.2309 8.75 11.375V5.25C8.75 4.78587 8.56563 4.34075 8.23744 4.01256C7.90925 3.68437 7.46413 3.5 7 3.5Z" fill="white"/>
<path d="M18.3369 3.5H14.8369C13.9087 3.5 13.0184 3.86875 12.362 4.52513C11.7057 5.1815 11.3369 6.07174 11.3369 7V10.5C11.3369 10.9641 11.5213 11.4092 11.8495 11.7374C12.1777 12.0656 12.6228 12.25 13.0869 12.25H18.2582C18.0506 13.472 17.4177 14.5812 16.4714 15.3818C15.5252 16.1824 14.3264 16.6227 13.0869 16.625C12.8548 16.625 12.6323 16.7172 12.4682 16.8813C12.3041 17.0454 12.2119 17.2679 12.2119 17.5C12.2119 17.7321 12.3041 17.9546 12.4682 18.1187C12.6323 18.2828 12.8548 18.375 13.0869 18.375C14.9428 18.3729 16.7221 17.6347 18.0344 16.3224C19.3467 15.0101 20.0848 13.2309 20.0869 11.375V5.25C20.0869 4.78587 19.9025 4.34075 19.5744 4.01256C19.2462 3.68437 18.801 3.5 18.3369 3.5Z" fill="white"/>
</g>
<defs>
<clipPath id="clip0_391_8644">
<rect width="21" height="21" fill="white"/>
</clipPath>
</defs>
</svg>
