<svg width="22" height="22" viewBox="0 0 22 22" fill="none" xmlns="http://www.w3.org/2000/svg">
<path d="M4.95 1.65098L3.99075 0C2.439 0.989844 1.08271 2.30373 0 3.86597L1.49507 4.95C2.43693 3.61496 3.61079 2.49407 4.95 1.65098Z" fill="white"/>
<path d="M20.3388 4.95L22 3.86597C20.797 2.30373 19.29 0.989844 17.5658 0L16.5 1.65098C17.988 2.49407 19.2923 3.61496 20.3388 4.95Z" fill="white"/>
<path d="M11.6485 1.87984V0H9.79872V1.87984C7.90666 2.04739 6.09999 2.73761 4.58407 3.87205C3.06816 5.00649 1.90382 6.53964 1.22342 8.29721C0.543011 10.0548 0.373834 11.9663 0.735117 13.8144C1.0964 15.6625 1.97365 17.3731 3.26714 18.7517L1.48395 20.6929L2.85279 21.9266L4.64153 19.9808C6.3935 21.2911 8.52866 22 10.7236 22C12.9186 22 15.0537 21.2911 16.8057 19.9808L18.5944 21.9294L19.9633 20.6957L18.1801 18.7544C19.4744 17.3759 20.3524 15.6651 20.7141 13.8165C21.0759 11.968 20.9069 10.056 20.2264 8.29793C19.5459 6.53986 18.3812 5.00632 16.8648 3.87172C15.3484 2.73711 13.5411 2.04699 11.6485 1.87984ZM12.8444 14.3962L9.79872 11.378V6.41585H11.6485V10.6191L14.1522 13.1002L12.8444 14.3962Z" fill="white"/>
</svg>
