<svg width="20" height="20" viewBox="0 0 20 20" fill="none" xmlns="http://www.w3.org/2000/svg">
<mask id="mask0_1291_6325" style="mask-type:alpha" maskUnits="userSpaceOnUse" x="0" y="0" width="20" height="20">
<rect width="20" height="20" fill="#DF2626"/>
</mask>
<g mask="url(#mask0_1291_6325)">
<path d="M9.99967 13.3334C11.0413 13.3334 11.9268 12.9688 12.6559 12.2396C13.3851 11.5105 13.7497 10.625 13.7497 9.58337C13.7497 8.54171 13.3851 7.65629 12.6559 6.92712C11.9268 6.19796 11.0413 5.83337 9.99967 5.83337C8.95801 5.83337 8.07259 6.19796 7.34342 6.92712C6.61426 7.65629 6.24967 8.54171 6.24967 9.58337C6.24967 10.625 6.61426 11.5105 7.34342 12.2396C8.07259 12.9688 8.95801 13.3334 9.99967 13.3334ZM9.99967 11.8334C9.37467 11.8334 8.84343 11.6146 8.40593 11.1771C7.96843 10.7396 7.74967 10.2084 7.74967 9.58337C7.74967 8.95837 7.96843 8.42712 8.40593 7.98962C8.84343 7.55212 9.37467 7.33337 9.99967 7.33337C10.6247 7.33337 11.1559 7.55212 11.5934 7.98962C12.0309 8.42712 12.2497 8.95837 12.2497 9.58337C12.2497 10.2084 12.0309 10.7396 11.5934 11.1771C11.1559 11.6146 10.6247 11.8334 9.99967 11.8334ZM9.99967 15.8334C7.9719 15.8334 6.12467 15.2674 4.45801 14.1355C2.79134 13.0035 1.58301 11.4862 0.833008 9.58337C1.58301 7.6806 2.79134 6.16324 4.45801 5.03129C6.12467 3.89935 7.9719 3.33337 9.99967 3.33337C12.0275 3.33337 13.8747 3.89935 15.5413 5.03129C17.208 6.16324 18.4163 7.6806 19.1663 9.58337C18.4163 11.4862 17.208 13.0035 15.5413 14.1355C13.8747 15.2674 12.0275 15.8334 9.99967 15.8334ZM9.99967 14.1667C11.5691 14.1667 13.0101 13.7535 14.3226 12.9271C15.6351 12.1007 16.6386 10.9862 17.333 9.58337C16.6386 8.1806 15.6351 7.06601 14.3226 6.23962C13.0101 5.41323 11.5691 5.00004 9.99967 5.00004C8.43023 5.00004 6.98926 5.41323 5.67676 6.23962C4.36426 7.06601 3.36079 8.1806 2.66634 9.58337C3.36079 10.9862 4.36426 12.1007 5.67676 12.9271C6.98926 13.7535 8.43023 14.1667 9.99967 14.1667Z" fill="#DF4E37"/>
</g>
</svg>
